HIERARCHY
ROOT Joint1
{
	OFFSET 0.000000 0.000000 0.000000
	CHANNELS 6 Xposition Yposition Zposition Xrotation Yrotation Zrotation
	JOINT Joint2
	{
		OFFSET -0.000000 0.000000 1.456275
		CHANNELS 6 Xposition Yposition Zposition Xrotation Yrotation Zrotation
		JOINT Joint3
		{
			OFFSET -0.000000 0.000002 1.471446
			CHANNELS 6 Xposition Yposition Zposition Xrotation Yrotation Zrotation
			JOINT Joint4
			{
				OFFSET 0.625745 0.000000 0.917755
				CHANNELS 6 Xposition Yposition Zposition Xrotation Yrotation Zrotation
				JOINT Joint5
				{
					OFFSET -0.629534 0.000001 0.940221
					CHANNELS 6 Xposition Yposition Zposition Xrotation Yrotation Zrotation
					JOINT Joint6
					{
						OFFSET -0.000001 0.113772 1.960660
						CHANNELS 6 Xposition Yposition Zposition Xrotation Yrotation Zrotation
						JOINT Joint7
						{
							OFFSET -0.669733 -0.113771 0.388340
							CHANNELS 6 Xposition Yposition Zposition Xrotation Yrotation Zrotation
							End Site
							{
								OFFSET 0.005509 0.005509 0.438980
							}
						}
					}
				}
			}
		}
	}
}
MOTION
Frames: 29
Frame Time: 0.041667
0.000000 0.000000 0.000000 -0.000000 1.019410 -25.038951 -0.000000 -0.000000 1.456275 0.000001 -64.098621 -0.000002 -0.000000 0.000002 1.471446 -0.000001 -1.133462 -41.651330 0.625744 0.000000 0.917755 -0.000003 104.256998 -0.000006 -0.629534 0.000001 0.940221 -0.000001 1.709736 -74.188285 -0.000001 0.113772 1.960661 -88.303882 -221.924895 0.000004 -0.669733 -0.113771 0.388340 0.300988 2.698655 53.414917 
0.000000 0.000000 0.000000 -0.000000 1.019410 -24.345311 -0.000000 0.000000 1.456275 -0.000001 -63.569144 -0.000004 -0.000000 0.000002 1.471446 -0.000001 -1.133462 -40.498329 0.625744 0.000001 0.917755 0.000012 105.109228 -0.000011 -0.629533 0.000001 0.940221 -0.000003 1.709739 -72.133341 -0.000001 0.113772 1.960661 -88.303882 -223.257410 0.000004 -0.669733 -0.113771 0.388340 0.294338 2.738167 55.672961 
0.000000 0.000000 0.000000 -0.000000 1.019410 -23.566179 -0.000000 0.000000 1.456275 0.000002 -62.974399 -0.000000 -0.000000 0.000002 1.471446 -0.000002 -1.133461 -39.203209 0.625744 0.000000 0.917755 -0.000004 106.066493 -0.000008 -0.629534 0.000001 0.940221 -0.000002 1.709737 -69.825133 -0.000001 0.113772 1.960661 -88.303875 -224.754164 0.000003 -0.669733 -0.113771 0.388340 0.285015 2.782195 58.209406 
0.000000 0.000000 0.000000 -0.000000 1.019410 -22.815564 -0.000000 0.000000 1.456275 0.000001 -62.401421 -0.000004 -0.000000 0.000002 1.471446 -0.000001 -1.133462 -37.955498 0.625744 0.000000 0.917755 -0.000010 106.988725 -0.000014 -0.629534 0.000001 0.940221 -0.000003 1.709735 -67.601394 -0.000001 0.113772 1.960661 -88.303882 -226.196153 0.000002 -0.669733 -0.113771 0.388341 0.274200 2.824181 60.653104 
0.000000 0.000000 0.000000 -0.000000 1.019410 -22.093410 -0.000000 0.000000 1.456275 0.000003 -61.850170 -0.000001 -0.000000 0.000002 1.471446 -0.000004 -1.133465 -36.755092 0.625745 0.000000 0.917755 -0.000001 107.875994 -0.000004 -0.629533 0.000001 0.940221 -0.000001 1.709739 -65.461981 -0.000001 0.113772 1.960660 -88.303882 -227.583447 0.000011 -0.669733 -0.113771 0.388340 0.262105 2.864109 63.004254 
0.000000 0.000000 0.000000 -0.000000 1.019410 -21.371199 -0.000000 0.000000 1.456275 0.000000 -61.298885 -0.000001 -0.000001 0.000002 1.471446 -0.000002 -1.133463 -35.554604 0.625744 0.000000 0.917755 0.000005 108.763324 -0.000010 -0.629533 0.000001 0.940221 -0.000001 1.709737 -63.322404 -0.000001 0.113772 1.960660 -88.303875 -228.970863 0.000008 -0.669733 -0.113771 0.388340 0.248382 2.903513 65.355635 
0.000000 0.000000 0.000000 -0.000000 1.019410 -20.620633 -0.000000 0.000000 1.456275 0.000001 -60.725948 -0.000003 -0.000000 0.000002 1.471446 -0.000002 -1.133461 -34.306968 0.625745 0.000001 0.917755 0.000014 109.685489 -0.000004 -0.629534 0.000001 0.940221 0.000002 1.709739 -61.098822 -0.000001 0.113772 1.960660 -88.303875 -230.412716 0.000007 -0.669734 -0.113771 0.388340 0.232418 2.943826 67.799470 
0.000000 0.000000 0.000000 -0.000000 1.019410 -19.841758 -0.000000 0.000000 1.456275 -0.000001 -60.131408 0.000000 -0.000000 0.000002 1.471446 -0.000001 -1.133463 -33.012282 0.625745 0.000000 0.917755 0.000011 110.642432 -0.000009 -0.629533 0.000001 0.940221 -0.000001 1.709734 -58.791359 -0.000001 0.113772 1.960660 -88.303875 -231.908992 0.000004 -0.669733 -0.113771 0.388340 0.214043 2.984906 70.335581 
0.000000 0.000000 0.000000 -0.000000 1.019410 -19.147858 -0.000000 0.000000 1.456275 -0.000001 -59.601720 0.000004 -0.000000 0.000002 1.471446 -0.000002 -1.133462 -31.858847 0.625745 0.000001 0.917755 0.000018 111.494983 -0.000000 -0.629534 0.000001 0.940221 0.000001 1.709736 -56.735660 -0.000001 0.113772 1.960660 -88.303875 -233.241999 0.000005 -0.669733 -0.113771 0.388340 0.196159 3.020786 72.595075 
0.000000 0.000000 0.000000 -0.000000 1.019410 -18.631766 -0.000000 0.000000 1.456275 -0.000001 -59.207761 -0.000001 -0.000000 0.000002 1.471446 0.000000 -1.133461 -31.000972 0.625745 0.000001 0.917755 0.000017 112.129064 -0.000005 -0.629533 0.000001 0.940221 -0.000000 1.709738 -55.206715 -0.000000 0.113772 1.960660 -88.303882 -234.233469 0.000002 -0.669733 -0.113771 0.388340 0.181945 3.046998 74.275664 
0.000000 0.000000 0.000000 -0.000000 1.019410 -18.191196 -0.000000 0.000000 1.456275 0.000003 -58.871470 0.000003 -0.000000 0.000002 1.471446 -0.000000 -1.133463 -30.268629 0.625745 0.000000 0.917755 0.000019 112.670370 -0.000009 -0.629533 0.000001 0.940221 -0.000001 1.709737 -53.901500 -0.000001 0.113772 1.960661 -88.303882 -235.079812 0.000003 -0.669733 -0.113771 0.388340 0.169206 3.069043 75.710352 
0.000000 0.000000 0.000000 -0.000000 1.019410 -17.675085 -0.000000 0.000000 1.456275 0.000001 -58.477498 0.000002 -0.000000 0.000002 1.471446 -0.000001 -1.133465 -29.410730 0.625745 0.000001 0.917755 0.000015 113.304471 -0.000013 -0.629533 0.000001 0.940221 0.000001 1.709737 -52.372507 -0.000000 0.113772 1.960661 -88.303875 -236.071282 0.000005 -0.669734 -0.113771 0.388340 0.153584 3.094445 77.391070 
0.000000 0.000000 0.000000 -0.000000 1.019410 -16.981165 -0.000000 -0.000000 1.456275 -0.000001 -57.947803 0.000001 -0.000000 0.000002 1.471446 -0.000000 -1.133462 -28.257254 0.625745 0.000001 0.917755 0.000008 114.157043 -0.000008 -0.629534 0.000001 0.940221 0.000002 1.709740 -50.316740 -0.000001 0.113772 1.960661 -88.303868 -237.404344 -0.000001 -0.669733 -0.113771 0.388340 0.131412 3.127864 79.650900 
0.000000 0.000000 0.000000 -0.000000 1.019410 -16.202310 -0.000000 0.000000 1.456275 -0.000000 -57.353283 0.000004 -0.000000 0.000002 1.471446 -0.000001 -1.133462 -26.962607 0.625745 0.000001 0.917755 0.000003 115.113973 -0.000014 -0.629534 0.000001 0.940222 0.000001 1.709738 -48.009348 -0.000001 0.113772 1.960661 -88.303875 -238.900565 0.000005 -0.669733 -0.113771 0.388339 0.104981 3.164292 82.187434 
0.000000 0.000000 0.000000 -0.000000 1.019410 -15.451819 -0.000000 0.000000 1.456275 0.000002 -56.780408 0.000002 -0.000000 0.000002 1.471446 -0.000000 -1.133462 -25.715100 0.625745 0.000001 0.917755 0.000009 116.036062 -0.000010 -0.629534 0.000001 0.940220 0.000003 1.709735 -45.785989 -0.000001 0.113772 1.960661 -88.303875 -240.342308 0.000002 -0.669733 -0.113771 0.388340 0.078010 3.198263 84.631713 
0.000000 0.000000 0.000000 -0.000000 1.019410 -14.729540 -0.000000 0.000000 1.456275 -0.000001 -56.229058 -0.000002 -0.000000 0.000002 1.471446 0.000002 -1.133465 -24.514483 0.625745 0.000001 0.917755 0.000009 116.923468 -0.000000 -0.629533 0.000001 0.940221 0.000003 1.709736 -43.646200 -0.000001 0.113772 1.960661 -88.303868 -241.729848 0.000001 -0.669733 -0.113771 0.388340 0.050699 3.229843 86.984180 
0.000000 0.000000 0.000000 -0.000000 1.019410 -14.007110 -0.000000 -0.000000 1.456275 0.000001 -55.677595 -0.000001 -0.000000 0.000002 1.471446 -0.000001 -1.133464 -23.313621 0.625745 0.000001 0.917755 0.000009 117.811064 -0.000006 -0.629533 0.000001 0.940221 0.000003 1.709734 -41.505967 -0.000001 0.113772 1.960660 -88.303875 -243.117688 0.000003 -0.669733 -0.113771 0.388340 0.022110 3.260281 89.337235 
0.000000 0.000000 0.000000 -0.000000 1.019410 -13.256764 -0.000000 -0.000000 1.456275 0.000001 -55.104836 -0.000000 -0.000000 0.000002 1.471446 -0.000002 -1.133458 -22.066364 0.625745 0.000000 0.917755 0.000008 118.732962 -0.000002 -0.629534 0.000001 0.940221 -0.000000 1.709736 -39.283041 -0.000001 0.113772 1.960660 -88.303875 -244.559131 0.000005 -0.669734 -0.113771 0.388340 -0.008886 3.290630 91.781295 
0.000000 0.000000 0.000000 -0.000000 1.019410 -12.478654 -0.000000 0.000000 1.456275 -0.000001 -54.510876 -0.000001 -0.000001 0.000002 1.471446 -0.000000 -1.133463 -20.772948 0.625745 0.000000 0.917755 0.000005 119.688957 -0.000003 -0.629534 0.000001 0.940221 0.000000 1.709737 -36.977859 -0.000001 0.113772 1.960660 -88.303875 -246.053904 0.000010 -0.669733 -0.113771 0.388340 -0.042363 3.320674 94.315890 
0.000000 0.000000 0.000000 -0.000000 1.019410 -11.783991 -0.000000 -0.000000 1.456275 0.000002 -53.980611 -0.000001 -0.000000 0.000002 1.471446 -0.000000 -1.133462 -19.618243 0.625745 0.000000 0.917755 0.000008 120.542457 -0.000002 -0.629534 0.000001 0.940221 -0.000000 1.709737 -34.919882 -0.000001 0.113772 1.960660 -88.303875 -247.388414 0.000008 -0.669733 -0.113771 0.388340 -0.073359 3.346223 96.578745 
0.000000 0.000000 0.000000 -0.000000 1.019410 -11.264375 -0.000000 -0.000000 1.456275 0.000001 -53.583971 -0.000000 -0.000000 0.000002 1.471446 0.000000 -1.133464 -18.754506 0.625745 0.000000 0.917755 0.000006 121.180861 -0.000003 -0.629534 0.000001 0.940221 -0.000000 1.709739 -33.380497 -0.000000 0.113773 1.960660 -88.303875 -248.386605 0.000005 -0.669733 -0.113771 0.388339 -0.097184 3.364527 98.271437 
0.000000 0.000000 0.000000 -0.000000 1.019410 -10.821885 -0.000000 0.000000 1.456275 -0.000000 -53.246198 -0.000000 -0.000000 0.000002 1.471446 -0.000001 -1.133465 -18.018975 0.625745 0.000000 0.917755 0.000008 121.724544 -0.000003 -0.629534 0.000001 0.940221 0.000001 1.709736 -32.069603 -0.000001 0.113772 1.960660 -88.303868 -249.236663 0.000010 -0.669734 -0.113771 0.388341 -0.117900 3.379556 99.712914 
0.000000 0.000000 0.000000 -0.000000 1.019410 -10.311217 -0.000000 0.000000 1.456275 0.000000 -52.856385 0.000000 -0.000000 0.000002 1.471446 -0.000000 -1.133464 -17.170117 0.625744 0.000000 0.917755 0.000012 122.351965 0.000002 -0.629534 0.000001 0.940221 -0.000002 1.709741 -30.556730 -0.000001 0.113772 1.960660 -88.303868 -250.217696 0.000007 -0.669733 -0.113771 0.388339 -0.142266 3.396244 101.376509 
0.000000 0.000000 0.000000 -0.000000 1.019410 -9.628862 -0.000000 0.000000 1.456275 -0.000000 -52.335522 0.000000 -0.000000 0.000002 1.471446 -0.000000 -1.133462 -16.035875 0.625745 0.000000 0.917755 0.000006 123.190330 0.000000 -0.629534 0.000001 0.940221 0.000000 1.709739 -28.535221 -0.000001 0.113772 1.960660 -88.303875 -251.528519 0.000017 -0.669733 -0.113771 0.388339 -0.175561 3.417426 103.599483 
0.000000 0.000000 0.000000 -0.000000 1.019410 -8.838443 -0.000000 -0.000000 1.456275 -0.000000 -51.732164 0.000001 -0.000000 0.000002 1.471445 0.000000 -1.133464 -14.722000 0.625745 0.000000 0.917755 0.000007 124.161460 0.000000 -0.629534 0.000001 0.940221 -0.000001 1.709738 -26.193574 -0.000001 0.113772 1.960661 -88.303875 -253.046979 0.000014 -0.669733 -0.113771 0.388340 -0.215126 3.440332 106.174573 
0.000000 0.000000 0.000000 -0.000000 1.019410 -8.046700 -0.000000 -0.000000 1.456275 0.000000 -51.127798 0.000001 -0.000000 0.000002 1.471446 0.000000 -1.133459 -13.405922 0.625745 0.000000 0.917755 0.000007 125.134229 0.000000 -0.629534 0.000001 0.940221 -0.000001 1.709738 -23.847998 -0.000000 0.113772 1.960660 -88.303868 -254.567953 0.000006 -0.669733 -0.113771 0.388341 -0.255750 3.461478 108.754063 
0.000000 0.000000 0.000000 -0.000000 1.019410 -7.365671 -0.000000 0.000000 1.456275 0.000001 -50.607942 0.000000 -0.000000 0.000002 1.471446 -0.000000 -1.133462 -12.273878 0.625745 0.000000 0.917755 0.000004 125.970955 -0.000001 -0.629533 0.000001 0.940221 0.000001 1.709737 -21.830418 -0.000001 0.113772 1.960660 -88.303868 -255.876235 0.000006 -0.669733 -0.113771 0.388340 -0.291428 3.478185 110.972891 
0.000000 0.000000 0.000000 -0.000000 1.019410 -6.863250 -0.000000 0.000000 1.456275 0.000001 -50.224427 0.000000 -0.000000 0.000002 1.471446 0.000000 -1.133461 -11.438730 0.625745 0.000000 0.917755 -0.000000 126.588240 0.000000 -0.629534 0.000001 0.940221 -0.000000 1.709734 -20.341980 -0.000001 0.113772 1.960660 -88.303862 -256.841423 0.000016 -0.669733 -0.113771 0.388340 -0.318152 3.489623 112.609848 
0.000000 0.000000 0.000000 -0.000000 1.019410 -6.425471 -0.000000 0.000000 1.456275 -0.000000 -49.890246 -0.000000 -0.000001 0.000002 1.471446 0.000000 -1.133461 -10.711030 0.625745 0.000000 0.917755 0.000003 127.126104 -0.000001 -0.629534 0.000001 0.940221 -0.000002 1.709737 -19.045038 -0.000001 0.113772 1.960660 -88.303862 -257.682438 0.000013 -0.669733 -0.113771 0.388340 -0.341695 3.498964 114.036203 
